#!OML:ASF C:\Vicon Data\Big\jianyuan-13\jianyuan\Session 1\Capture.male.ASF
:FULLY-SPECIFIED
:DEGREES
195
root -4.810688 17.850485 -11.444264 2.672426 10.624260 -0.998261
lowerback -4.562804 -0.181793 -0.404414 
upperback 3.368414 -0.205671 -0.141781 
thorax 6.060477 -0.115289 0.059406 
lowerneck 0.062791 -2.954075 2.175457 
upperneck 14.565761 -3.783118 -2.417404 
head 4.727381 -1.859987 -1.356954 
rclavicle 0.000000 0.000000 
rhumerus -38.163185 -18.577501 -77.873686 
rradius 38.493379 
rwrist 23.345139 
rhand -19.301964 -18.027805 
rfingers 0.000000 
rthumb 7.013666 -47.891579 
lclavicle 0.000000 0.000000 
lhumerus -29.854702 26.508333 78.218268 
lradius 29.417538 
lwrist -48.555378 
lhand -19.526166 0.368689 
lfingers 0.000000 
lthumb 6.797235 30.239600 
rfemur -81.588433 -17.540535 21.285213 
rtibia 98.690325 
rfoot -3.464205 -3.504511 
rtoes -37.591296 
lfemur -7.816706 -4.009302 -23.217106 
ltibia 11.767217 
lfoot -8.267270 1.146382 
ltoes -30.226515 
196
root -4.789961 17.866736 -11.374129 2.403165 10.784966 -1.079138
lowerback -4.470325 -0.200275 -0.525443 
upperback 3.424085 -0.224133 -0.102895 
thorax 6.066866 -0.130530 0.166118 
lowerneck -0.029254 -2.997548 2.155429 
upperneck 14.650248 -3.850108 -2.355752 
head 4.777006 -1.890761 -1.339171 
rclavicle 0.000000 0.000000 
rhumerus -38.390426 -18.775692 -77.600305 
rradius 38.148042 
rwrist 23.342829 
rhand -19.213048 -18.019082 
rfingers 0.000000 
rthumb 7.099508 -47.879969 
lclavicle 0.000000 0.000000 
lhumerus -29.566030 26.219645 78.478086 
lradius 29.498010 
lwrist -48.271359 
lhand -19.405821 0.318513 
lfingers 0.000000 
lthumb 6.913433 30.185615 
rfemur -82.233809 -17.184557 21.220241 
rtibia 97.841845 
rfoot -3.541357 -3.665310 
rtoes -37.994929 
lfemur -6.701789 -4.111774 -23.194632 
ltibia 10.658244 
lfoot -7.986489 1.286801 
ltoes -30.196235 
197
root -4.773008 17.878532 -11.299005 2.178376 10.844438 -1.168788
lowerback -4.456786 -0.158335 -0.545365 
upperback 3.460143 -0.162833 -0.168534 
thorax 6.096547 -0.099662 0.114914 
lowerneck -0.104266 -3.083004 2.344127 
upperneck 14.764392 -3.975267 -2.356458 
head 4.827751 -1.941667 -1.381980 
rclavicle 0.000000 0.000000 
rhumerus -38.642635 -19.290684 -77.381539 
rradius 37.729402 
rwrist 23.687224 
rhand -19.144035 -18.099143 
rfingers 0.000000 
rthumb 7.166120 -47.957837 
lclavicle 0.000000 0.000000 
lhumerus -29.280001 25.711262 78.608601 
lradius 29.550788 
lwrist -47.954674 
lhand -19.353194 0.319837 
lfingers 0.000000 
lthumb 6.964244 30.185298 
rfemur -82.815393 -16.650309 21.137239 
rtibia 96.957419 
rfoot -3.673863 -3.789056 
rtoes -38.804717 
lfemur -5.661214 -4.127521 -23.136228 
ltibia 9.613464 
lfoot -7.703900 1.425409 
ltoes -30.283131 
198
root -4.758586 17.888857 -11.220414 1.931056 10.890534 -1.298977
lowerback -4.430186 -0.212112 -0.595742 
upperback 3.473523 -0.233860 -0.122962 
thorax 6.096275 -0.138006 0.183751 
lowerneck -0.144002 -3.028994 2.144569 
upperneck 14.899412 -3.905242 -2.265813 
head 4.893795 -1.913137 -1.317393 
rclavicle 0.000000 0.000000 
rhumerus -38.847869 -19.418804 -77.138837 
rradius 37.365256 
rwrist 23.985893 
rhand -18.914939 -18.243706 
rfingers 0.000000 
rthumb 7.387220 -48.094680 
lclavicle 0.000000 0.000000 
lhumerus -29.253483 25.562594 78.629640 
lradius 29.591932 
lwrist -48.310045 
lhand -19.461885 0.265702 
lfingers 0.000000 
lthumb 6.859310 30.134597 
rfemur -83.334404 -16.178408 21.130403 
rtibia 96.145993 
rfoot -4.052454 -4.122172 
rtoes -38.321337 
lfemur -4.591977 -4.191621 -23.022403 
ltibia 8.547893 
lfoot -7.379043 1.611726 
ltoes -29.930350 
199
root -4.739707 17.897871 -11.140749 1.813890 10.935872 -1.325667
lowerback -4.566824 -0.285993 -0.655757 
upperback 3.470083 -0.325749 -0.150484 
thorax 6.172206 -0.185461 0.179227 
lowerneck -0.152754 -3.014581 2.024995 
upperneck 14.997163 -3.878611 -2.279946 
head 4.934959 -1.907154 -1.302639 
rclavicle 0.000000 0.000000 
rhumerus -38.974821 -19.354338 -77.070821 
rradius 37.044958 
rwrist 24.080000 
rhand -18.882027 -18.337584 
rfingers 0.000000 
rthumb 7.419028 -48.187413 
lclavicle 0.000000 0.000000 
lhumerus -29.239898 25.378808 78.593462 
lradius 29.727246 
lwrist -47.808798 
lhand -19.142109 0.195609 
lfingers 0.000000 
lthumb 7.167992 30.054219 
rfemur -83.852628 -15.711271 20.987200 
rtibia 95.337467 
rfoot -4.154624 -4.370671 
rtoes -38.372656 
lfemur -3.622509 -4.266865 -23.036889 
ltibia 7.453625 
lfoot -7.028883 1.821318 
ltoes -29.472940 
200
root -4.720590 17.899307 -11.063897 1.677438 11.069966 -1.368999
lowerback -4.571589 -0.348222 -0.679183 
upperback 3.419243 -0.406875 -0.161525 
thorax 6.122081 -0.226044 0.173086 
lowerneck -0.253827 -2.991690 1.907951 
upperneck 15.617270 -3.830586 -2.319369 
head 4.635261 -1.901550 -1.183476 
rclavicle 0.000000 0.000000 
rhumerus -39.207896 -19.457355 -76.869839 
rradius 36.796522 
rwrist 24.353016 
rhand -18.762782 -18.488233 
rfingers 0.000000 
rthumb 7.534125 -48.334070 
lclavicle 0.000000 0.000000 
lhumerus -29.338766 25.121151 78.576149 
lradius 29.790967 
lwrist -47.962537 
lhand -19.309615 0.172096 
lfingers 0.000000 
lthumb 7.006266 30.036123 
rfemur -84.378145 -15.473568 20.964758 
rtibia 94.676031 
rfoot -4.479132 -4.678041 
rtoes -38.640587 
lfemur -2.867310 -4.430407 -23.047953 
ltibia 6.777832 
lfoot -6.846211 1.969395 
ltoes -29.208920 
201
root -4.700617 17.902804 -10.988098 1.506012 11.194054 -1.576383
lowerback -4.580079 -0.365777 -0.521980 
upperback 3.382979 -0.441787 -0.164270 
thorax 6.087590 -0.236398 0.078754 
lowerneck -0.376075 -3.004948 1.862790 
upperneck 15.825669 -3.855577 -2.260847 
head 4.721456 -1.912889 -1.164304 
rclavicle 0.000000 0.000000 
rhumerus -39.396266 -19.727665 -76.672520 
rradius 36.399825 
rwrist 24.371949 
rhand -18.923361 -18.234881 
rfingers 0.000000 
rthumb 7.379113 -48.086251 
lclavicle 0.000000 0.000000 
lhumerus -29.421297 24.835317 78.531627 
lradius 29.915667 
lwrist -47.922951 
lhand -19.202050 0.145667 
lfingers 0.000000 
lthumb 7.110087 30.006249 
rfemur -84.751882 -15.217529 21.149075 
rtibia 93.952188 
rfoot -4.694742 -5.128390 
rtoes -38.684353 
lfemur -2.358756 -4.579092 -22.893932 
ltibia 6.600473 
lfoot -6.849502 2.042717 
ltoes -29.169139 
202
root -4.688456 17.909519 -10.906846 1.225169 11.271559 -1.726102
lowerback -4.520760 -0.390531 -0.475880 
upperback 3.412652 -0.477547 -0.182079 
thorax 6.084451 -0.251724 0.031160 
lowerneck -0.401996 -3.006749 1.756479 
upperneck 15.890810 -3.865832 -2.166434 
head 4.749935 -1.918622 -1.119647 
rclavicle 0.000000 0.000000 
rhumerus -39.672394 -20.248238 -76.385674 
rradius 36.045856 
rwrist 25.715374 
rhand -18.934600 -18.096459 
rfingers 0.000000 
rthumb 7.368308 -47.948126 
lclavicle 0.000000 0.000000 
lhumerus -29.437096 24.684784 78.400854 
lradius 29.937799 
lwrist -47.725634 
lhand -19.108028 0.149737 
lfingers 0.000000 
lthumb 7.200903 30.007240 
rfemur -84.894547 -14.963619 21.361556 
rtibia 93.279021 
rfoot -4.860393 -5.827607 
rtoes -38.550726 
lfemur -1.446187 -4.675906 -22.787878 
ltibia 5.959882 
lfoot -6.724200 2.166914 
ltoes -28.931489 
203
root -4.666063 17.908801 -10.832181 1.034823 11.467556 -1.782529
lowerback -4.487467 -0.439043 -0.435993 
upperback 3.420157 -0.543512 -0.217810 
thorax 6.072789 -0.281763 -0.034545 
lowerneck -0.424150 -3.077215 1.760226 
upperneck 15.915645 -3.954526 -2.219365 
head 4.758246 -1.964979 -1.140799 
rclavicle 0.000000 0.000000 
rhumerus -39.825584 -20.307974 -76.308640 
rradius 35.949626 
rwrist 25.526709 
rhand -19.021580 -18.149083 
rfingers 0.000000 
rthumb 7.284332 -48.003637 
lclavicle 0.000000 0.000000 
lhumerus -29.563377 24.665818 78.282761 
lradius 30.036352 
lwrist -47.537736 
lhand -19.071265 0.118862 
lfingers 0.000000 
lthumb 7.236337 29.975166 
rfemur -85.064332 -14.990883 21.490618 
rtibia 92.631945 
rfoot -4.901948 -6.408972 
rtoes -38.204289 
lfemur -0.718535 -4.899904 -22.833948 
ltibia 5.481785 
lfoot -6.643224 2.308773 
ltoes -28.917206 
204
root -4.654909 17.910215 -10.750590 0.800194 11.566081 -1.898453
lowerback -4.578093 -0.443604 -0.424280 
upperback 3.510621 -0.547205 -0.259216 
thorax 6.219899 -0.282230 -0.085913 
lowerneck -0.476849 -3.141419 1.883114 
upperneck 15.876051 -4.048941 -2.221452 
head 4.750450 -2.004797 -1.165717 
rclavicle 0.000000 0.000000 
rhumerus -39.940869 -20.559688 -76.270574 
rradius 35.897563 
rwrist 25.549847 
rhand -19.031783 -18.102419 
rfingers 0.000000 
rthumb 7.274434 -47.957373 
lclavicle 0.000000 0.000000 
lhumerus -29.562809 24.878853 78.029268 
lradius 29.903664 
lwrist -48.053586 
lhand -19.229540 0.072882 
lfingers 0.000000 
lthumb 7.083567 29.934308 
rfemur -84.990184 -14.844066 21.613263 
rtibia 91.993279 
rfoot -5.113559 -6.885434 
rtoes -36.869817 
lfemur 0.027941 -5.019470 -22.765405 
ltibia 5.093986 
lfoot -6.669293 2.407137 
ltoes -28.852100 
205
root -4.639037 17.906401 -10.675865 0.613326 11.575167 -1.903760
lowerback -4.624894 -0.416840 -0.422987 
upperback 3.566132 -0.504528 -0.370031 
thorax 6.304403 -0.258463 -0.198506 
lowerneck -0.484251 -3.178729 2.026574 
upperneck 15.836005 -4.111349 -2.193973 
head 4.735798 -2.026008 -1.182787 
rclavicle 0.000000 0.000000 
rhumerus -39.973496 -20.723692 -76.301752 
rradius 35.765639 
rwrist 25.653758 
rhand -19.003239 -18.163364 
rfingers 0.000000 
rthumb 7.302005 -48.017392 
lclavicle 0.000000 0.000000 
lhumerus -29.610075 24.791554 77.821762 
lradius 29.870597 
lwrist -48.060519 
lhand -19.271828 0.163703 
lfingers 0.000000 
lthumb 7.042765 30.026542 
rfemur -84.859877 -14.693728 21.738093 
rtibia 91.239627 
rfoot -5.055362 -7.262349 
rtoes -37.311044 
lfemur 0.689001 -5.052469 -22.837499 
ltibia 4.781972 
lfoot -6.719151 2.476805 
ltoes -28.581324 
206
root -4.621644 17.901869 -10.602694 0.399424 11.668108 -1.871718
lowerback -4.611901 -0.532291 -0.581242 
upperback 3.605338 -0.651564 -0.294082 
thorax 6.341264 -0.339982 -0.045595 
lowerneck -0.593511 -3.002380 1.661908 
upperneck 15.865504 -3.883957 -1.987532 
head 4.779986 -1.923806 -1.053005 
rclavicle 0.000000 0.000000 
rhumerus -39.888666 -20.399236 -76.174265 
rradius 35.624982 
rwrist 25.783060 
rhand -18.880678 -18.023508 
rfingers 0.000000 
rthumb 7.420342 -47.873375 
lclavicle 0.000000 0.000000 
lhumerus -29.890318 25.261249 77.713368 
lradius 29.868215 
lwrist -48.138656 
lhand -19.185465 0.188785 
lfingers 0.000000 
lthumb 7.126128 30.048799 
rfemur -84.549027 -14.621733 21.666317 
rtibia 90.463192 
rfoot -5.009354 -7.069666 
rtoes -37.133422 
lfemur 1.285691 -5.166478 -22.955310 
ltibia 4.621131 
lfoot -6.839399 2.523907 
ltoes -28.540111 
207
root -4.620851 17.902616 -10.517919 0.148946 11.637229 -2.031648
lowerback -4.707922 -0.548149 -0.669358 
upperback 3.662504 -0.668101 -0.242159 
thorax 6.458956 -0.353607 0.054779 
lowerneck -0.588653 -3.004575 1.659531 
upperneck 15.917737 -3.886743 -1.989518 
head 4.795187 -1.925458 -1.054010 
rclavicle 0.000000 0.000000 
rhumerus -39.934837 -20.286400 -76.216308 
rradius 35.729671 
rwrist 25.771575 
rhand -18.945886 -18.132772 
rfingers 0.000000 
rthumb 7.357359 -47.984824 
lclavicle 0.000000 0.000000 
lhumerus -30.094396 25.639191 77.413508 
lradius 29.759625 
lwrist -48.416275 
lhand -19.530562 0.164614 
lfingers 0.000000 
lthumb 6.792980 30.035656 
rfemur -84.006820 -14.228613 21.730164 
rtibia 89.606651 
rfoot -5.010969 -6.753999 
rtoes -36.764883 
lfemur 2.017457 -5.152757 -22.777859 
ltibia 4.293844 
lfoot -6.921066 2.558517 
ltoes -28.334382 
